<?xml version="1.0" standalone="no"?>
<!DOCTYPE svg PUBLIC "-//W3C//DTD SVG 20010904//EN"
 "http://www.w3.org/TR/2001/REC-SVG-20010904/DTD/svg10.dtd">
<svg version="1.0" xmlns="http://www.w3.org/2000/svg"
 width="1024.000000pt" height="1024.000000pt" viewBox="0 0 1024.000000 1024.000000"
 preserveAspectRatio="xMidYMid meet">
<metadata>
Created by potrace 1.11, written by Peter Selinger 2001-2013
</metadata>
<g transform="translate(0.000000,1024.000000) scale(0.100000,-0.100000)"
fill="#000000" stroke="none">
<path d="M2015 10229 c-341 -49 -610 -291 -707 -634 l-23 -80 -3 -3943 c-2
-3844 -2 -3945 17 -4036 73 -359 374 -634 739 -676 48 -5 282 -10 519 -10
l433 0 2 -421 3 -421 527 422 c290 232 531 420 535 418 5 -1 246 -193 536
-426 l527 -422 0 430 0 430 1578 2 1577 3 70 24 c240 80 417 229 520 436 75
151 87 214 91 480 3 219 3 227 -11 166 -46 -202 -138 -359 -287 -487 -69 -60
-187 -129 -263 -154 -155 -52 -87 -50 -1737 -50 l-1538 0 0 425 0 425 -1071 0
-1071 0 7 -425 7 -425 -359 0 c-407 0 -449 6 -586 77 -151 79 -288 257 -322
421 -71 333 99 644 410 750 l80 27 3015 5 3015 5 75 21 c162 47 283 119 396
236 121 124 191 256 225 423 18 87 19 207 19 3151 0 3398 5 3140 -66 3313 -46
111 -92 181 -178 269 -123 127 -269 208 -441 243 -87 18 -204 19 -3145 18
-1680 -1 -3082 -5 -3115 -10z"/>
</g>
</svg>
